<svg width="79" height="36" viewBox="0 0 79 36" fill="none" xmlns="http://www.w3.org/2000/svg">
<path d="M27.4589 17.2969H28.7766V33.1275H27.4589V17.2969ZM32.7297 17.2969H34.0474V33.1275H32.7297V17.2969ZM30.0943 17.2969H31.412V33.1275H30.0943V17.2969ZM26.1412 17.2969V33.1275C23.8231 34.006 21.4195 34.4452 18.9305 34.4452C16.771 34.4452 14.7029 34.0487 12.7264 33.2556C10.7499 32.4625 9.01125 31.3645 7.51055 29.9614C6.00985 28.5461 4.80807 26.8014 3.90521 24.7272C3.01454 22.6409 2.56921 20.3898 2.56921 17.9741C2.56921 15.7413 3.00234 13.6123 3.8686 11.5869C4.74706 9.54938 5.91834 7.79856 7.38244 6.33446C8.85874 4.85816 10.6096 3.68688 12.6349 2.82062C14.6724 1.94216 16.8076 1.50293 19.0403 1.50293C21.8221 1.50293 24.4087 2.14957 26.8001 3.44286C29.1914 4.73615 31.1436 6.49307 32.6565 8.71362L31.5584 9.42737C30.1675 7.38983 28.3679 5.77932 26.1595 4.59584C23.9634 3.41236 21.5903 2.82062 19.0403 2.82062C16.9906 2.82062 15.0263 3.22325 13.1473 4.0285C11.2806 4.82156 9.6701 5.89523 8.31581 7.24952C6.96151 8.60382 5.88174 10.2204 5.07649 12.0994C4.28343 13.9661 3.8869 15.9243 3.8869 17.9741C3.8869 20.1824 4.29563 22.2443 5.11309 24.1599C5.94274 26.0754 7.04082 27.6798 8.40731 28.9731C9.78601 30.2664 11.3843 31.2852 13.2022 32.0294C15.0202 32.7615 16.9113 33.1275 18.8756 33.1275C20.9376 33.1275 22.9202 32.8042 24.8235 32.1575V30.8947C23.0056 31.5048 21.0962 31.8098 19.0952 31.8098C17.6433 31.8098 16.228 31.6085 14.8494 31.2059C13.4829 30.791 12.214 30.1871 11.0427 29.394C9.88361 28.5888 8.86484 27.6371 7.98638 26.539C7.12012 25.4288 6.43688 24.1416 5.93664 22.6775C5.44861 21.2012 5.20459 19.6334 5.20459 17.9741C5.20459 15.4729 5.82074 13.1608 7.05302 11.0379C8.29751 8.91494 9.98122 7.23732 12.1042 6.00504C14.2271 4.76055 16.5392 4.13831 19.0403 4.13831C21.3829 4.13831 23.5607 4.68735 25.5739 5.78542C27.587 6.8713 29.228 8.3476 30.4969 10.2143L29.3988 10.9281C28.252 9.24436 26.7635 7.91447 24.9333 6.9384C23.1154 5.95013 21.1511 5.456 19.0403 5.456C17.3444 5.456 15.7217 5.78542 14.1722 6.44427C12.6227 7.10311 11.2867 7.99377 10.1642 9.11625C9.05396 10.2265 8.1694 11.5564 7.51055 13.1059C6.85171 14.6554 6.52228 16.2781 6.52228 17.9741C6.52228 19.4992 6.7419 20.9328 7.18113 22.2749C7.63256 23.6047 8.2487 24.7699 9.02956 25.7704C9.82261 26.7587 10.7438 27.6127 11.793 28.3326C12.8423 29.0402 13.9831 29.577 15.2154 29.9431C16.4599 30.3091 17.7349 30.4921 19.0403 30.4921C21.0657 30.4921 22.9934 30.1505 24.8235 29.4672V28.1496C23.0178 28.845 21.1328 29.1927 19.1684 29.1927C17.6799 29.1927 16.2585 28.9426 14.9043 28.4424C13.55 27.9299 12.3421 27.2101 11.2806 26.2828C10.2313 25.3556 9.39558 24.1721 8.77334 22.7324C8.1511 21.2927 7.83997 19.7066 7.83997 17.9741C7.83997 15.9487 8.34021 14.0759 9.34068 12.3556C10.3411 10.6353 11.7015 9.27486 13.4219 8.27439C15.1422 7.27392 17.015 6.77369 19.0403 6.77369C20.9315 6.77369 22.6884 7.21292 24.3111 8.09138C25.946 8.96984 27.2759 10.1655 28.3008 11.6784L27.2027 12.3922C26.2998 11.0745 25.1286 10.0313 23.6889 9.26266C22.2614 8.48181 20.7119 8.09138 19.0403 8.09138C17.2468 8.09138 15.5936 8.53671 14.0807 9.42737C12.5678 10.3058 11.366 11.5015 10.4754 13.0144C9.59689 14.5273 9.15766 16.1805 9.15766 17.9741C9.15766 19.2185 9.33458 20.3776 9.6884 21.4513C10.0422 22.525 10.5303 23.4522 11.1525 24.2331C11.7747 25.0139 12.5007 25.6789 13.3303 26.2279C14.1722 26.777 15.0751 27.1918 16.0389 27.4724C17.0028 27.7408 18.0033 27.875 19.0403 27.875C21.1023 27.875 23.03 27.4663 24.8235 26.6488V25.3861C23.091 26.1547 21.2182 26.539 19.2051 26.539C18.046 26.539 16.954 26.3621 15.9291 26.0083C14.9043 25.6545 13.977 25.1359 13.1473 24.4527C12.3299 23.7695 11.6771 22.8727 11.1891 21.7624C10.7133 20.6399 10.4754 19.3772 10.4754 17.9741C10.4754 16.815 10.7011 15.7108 11.1525 14.6615C11.6039 13.6001 12.214 12.685 12.9826 11.9163C13.7513 11.1477 14.6602 10.5376 15.7095 10.0862C16.771 9.63479 17.8813 9.40907 19.0403 9.40907C20.4922 9.40907 21.8404 9.75069 23.0849 10.4339C24.3294 11.105 25.3421 12.02 26.1229 13.1791L25.0431 13.8929C24.3843 12.9168 23.5241 12.1482 22.4627 11.5869C21.4134 11.0135 20.2726 10.7268 19.0403 10.7268C17.0394 10.7268 15.3313 11.4344 13.916 12.8497C12.5007 14.265 11.793 15.9731 11.793 17.9741C11.793 19.2063 11.9944 20.2983 12.397 21.25C12.7996 22.1894 13.3487 22.9459 14.0441 23.5193C14.7517 24.0806 15.5326 24.5076 16.3867 24.8004C17.2529 25.081 18.1802 25.2214 19.1684 25.2214C21.1938 25.2214 23.0788 24.8004 24.8235 23.9586V17.2969H26.1412Z" fill="white"/>
<path d="M47 23.7475V12.2516H50.9503C51.7013 12.2516 52.3596 12.4007 52.9254 12.6991C53.4912 12.9871 53.9284 13.3986 54.2371 13.9335C54.556 14.4582 54.7154 15.0703 54.7154 15.7698C54.7154 16.5825 54.4994 17.2769 54.0673 17.853C53.6455 18.4291 53.0695 18.8354 52.3391 19.072L55.024 23.7475H53.5735L50.7651 18.7942L51.5984 19.2726H48.2345V23.7475H47ZM48.2345 18.1153H51.012C51.5058 18.1153 51.9379 18.0227 52.3082 17.8375C52.6785 17.6421 52.9666 17.3695 53.1723 17.0197C53.3781 16.6597 53.4809 16.2379 53.4809 15.7544C53.4809 15.2709 53.3781 14.8542 53.1723 14.5045C52.9666 14.1547 52.6785 13.8872 52.3082 13.7021C51.9379 13.5066 51.5058 13.4089 51.012 13.4089H48.2345V18.1153Z" fill="white"/>
<path d="M56.8854 23.7475V12.2516H60.6659C61.8078 12.2516 62.8005 12.4882 63.6441 12.9614C64.4876 13.4243 65.1409 14.0878 65.6038 14.952C66.0667 15.8058 66.2982 16.8191 66.2982 17.9918C66.2982 19.1543 66.0667 20.1676 65.6038 21.0317C65.1409 21.8958 64.4876 22.5645 63.6441 23.0377C62.8005 23.5109 61.8078 23.7475 60.6659 23.7475H56.8854ZM58.1198 22.5902H60.6659C61.5506 22.5902 62.317 22.4051 62.9651 22.0347C63.6132 21.6541 64.1121 21.1192 64.4619 20.4299C64.822 19.7407 65.002 18.928 65.002 17.9918C65.002 17.0557 64.822 16.2482 64.4619 15.5692C64.1019 14.88 63.5978 14.3502 62.9497 13.9798C62.3016 13.5992 61.5403 13.4089 60.6659 13.4089H58.1198V22.5902Z" fill="white"/>
<path d="M73.5844 23.9327C72.7717 23.9327 72.0259 23.7887 71.347 23.5007C70.668 23.2023 70.0765 22.7908 69.5724 22.2662C69.0786 21.7313 68.6929 21.1037 68.4151 20.3836C68.1373 19.6635 67.9985 18.8714 67.9985 18.0073C67.9985 17.1431 68.1373 16.351 68.4151 15.6309C68.6929 14.9108 69.0786 14.2833 69.5724 13.7484C70.0765 13.2134 70.668 12.8019 71.347 12.5139C72.0259 12.2156 72.7717 12.0664 73.5844 12.0664C74.3663 12.0664 75.0658 12.2053 75.683 12.483C76.3105 12.7608 76.8352 13.1208 77.257 13.5632C77.689 13.9953 77.9976 14.453 78.1828 14.9365L77.0718 15.4766C76.7838 14.7771 76.3414 14.2267 75.7447 13.8255C75.1481 13.4243 74.428 13.2237 73.5844 13.2237C72.7409 13.2237 71.9899 13.4243 71.3315 13.8255C70.6731 14.2267 70.1588 14.7874 69.7884 15.5075C69.4181 16.2173 69.2329 17.0506 69.2329 18.0073C69.2329 18.9537 69.4181 19.787 69.7884 20.5071C70.1588 21.2272 70.6731 21.7878 71.3315 22.189C71.9899 22.5799 72.7409 22.7754 73.5844 22.7754C74.3354 22.7754 75.0092 22.6108 75.6059 22.2816C76.2128 21.9524 76.6912 21.5049 77.0409 20.9391C77.3907 20.363 77.5656 19.7047 77.5656 18.964V18.3313L78.1211 18.8868H73.5844V17.8067H78.8V18.7634C78.8 19.5144 78.6663 20.2087 78.3988 20.8465C78.1314 21.4741 77.761 22.0193 77.2878 22.4822C76.8146 22.9451 76.2591 23.3052 75.6213 23.5624C74.9938 23.8093 74.3148 23.9327 73.5844 23.9327Z" fill="white"/>
</svg>
