<svg width="24" height="24" viewBox="0 0 24 24" fill="none" xmlns="http://www.w3.org/2000/svg">
<path d="M20.7097 3.65254C20.7097 3.65254 22.6523 2.89504 22.4904 4.73469C22.4365 5.4922 21.9508 8.14345 21.5731 11.0111L20.278 19.506C20.278 19.506 20.1701 20.7504 19.1987 20.9669C18.2274 21.1833 16.7704 20.2094 16.5006 19.9929C16.2847 19.8306 12.4534 17.3958 11.1043 16.2054C10.7266 15.8808 10.2949 15.2315 11.1583 14.474L16.8244 9.0633C17.4719 8.414 18.1195 6.899 15.4213 8.73865L7.86655 13.8788C7.86655 13.8788 7.00315 14.4199 5.3843 13.9329L1.87671 12.8508C1.87671 12.8508 0.581605 12.0392 2.79408 11.2275C8.19035 8.6845 14.8278 6.08735 20.7097 3.65254Z" fill="white"/>
</svg>
