<svg width="48" height="48" viewBox="0 0 48 48" fill="none" xmlns="http://www.w3.org/2000/svg">
<path d="M40 5.99952V13.9995M44 9.99952H36M8 33.9995V37.9995M10 35.9995H6M19.874 30.9995C19.6954 30.3074 19.3347 29.6757 18.8292 29.1703C18.3238 28.6648 17.6921 28.3041 17 28.1255L4.73 24.9615C4.52066 24.9021 4.33642 24.776 4.20523 24.6024C4.07403 24.4288 4.00305 24.2171 4.00305 23.9995C4.00305 23.7819 4.07403 23.5702 4.20523 23.3966C4.33642 23.223 4.52066 23.0969 4.73 23.0375L17 19.8715C17.6919 19.6931 18.3234 19.3327 18.8288 18.8276C19.3342 18.3225 19.6951 17.6913 19.874 16.9995L23.038 4.72952C23.0968 4.51936 23.2228 4.33421 23.3966 4.20231C23.5705 4.07042 23.7828 3.99902 24.001 3.99902C24.2192 3.99902 24.4315 4.07042 24.6054 4.20231C24.7792 4.33421 24.9052 4.51936 24.964 4.72952L28.126 16.9995C28.3046 17.6917 28.6653 18.3233 29.1708 18.8288C29.6762 19.3342 30.3079 19.695 31 19.8735L43.27 23.0355C43.481 23.0937 43.6671 23.2195 43.7997 23.3937C43.9323 23.5678 44.0041 23.7806 44.0041 23.9995C44.0041 24.2184 43.9323 24.4312 43.7997 24.6054C43.6671 24.7795 43.481 24.9053 43.27 24.9635L31 28.1255C30.3079 28.3041 29.6762 28.6648 29.1708 29.1703C28.6653 29.6757 28.3046 30.3074 28.126 30.9995L24.962 43.2695C24.9032 43.4797 24.7772 43.6648 24.6034 43.7967C24.4295 43.9286 24.2172 44 23.999 44C23.7808 44 23.5685 43.9286 23.3946 43.7967C23.2208 43.6648 23.0948 43.4797 23.036 43.2695L19.874 30.9995Z" stroke="#44A3DD" stroke-width="2.8" stroke-linecap="round" stroke-linejoin="round"/>
</svg>
