<svg width="48" height="48" viewBox="0 0 48 48" fill="none" xmlns="http://www.w3.org/2000/svg">
<path d="M18.12 23.8003L34.26 7.68032C34.7861 7.13721 35.4151 6.70421 36.1102 6.40654C36.8053 6.10887 37.5526 5.95248 38.3088 5.94647C39.0649 5.94046 39.8147 6.08496 40.5144 6.37155C41.2141 6.65815 41.8499 7.0811 42.3846 7.61578C42.9192 8.15046 43.3422 8.78619 43.6288 9.48593C43.9154 10.1857 44.0599 10.9354 44.0539 11.6916C44.0479 12.4477 43.8915 13.1951 43.5938 13.8902C43.2961 14.5853 42.8631 15.2142 42.32 15.7403L26.2 31.9003M14.14 29.8803C10.82 29.8803 8.14001 32.5803 8.14001 35.9203C8.14001 38.5803 3.14001 38.9603 4.14001 39.9603C6.30001 42.1603 9.12001 44.0003 12.14 44.0003C16.54 44.0003 20.14 40.4003 20.14 35.9203C20.1426 35.1298 19.9895 34.3464 19.6894 33.615C19.3893 32.8837 18.9481 32.2185 18.3909 31.6577C17.8338 31.0968 17.1716 30.6512 16.4423 30.3462C15.7129 30.0413 14.9306 29.8829 14.14 29.8803Z" stroke="#44A3DD" stroke-width="2.8" stroke-linecap="round" stroke-linejoin="round"/>
</svg>
