<svg width="50" height="50" viewBox="0 0 50 50" fill="none" xmlns="http://www.w3.org/2000/svg">
<path d="M25 31.2499L18.75 24.9999M25 31.2499C27.9101 30.1431 30.7018 28.7472 33.3333 27.0832M25 31.2499V41.6665C25 41.6665 31.3125 40.5207 33.3333 37.4999C35.5833 34.1249 33.3333 27.0832 33.3333 27.0832M18.75 24.9999C19.8586 22.1237 21.2546 19.3667 22.9167 16.7707C25.3441 12.8894 28.7242 9.69372 32.7354 7.48756C36.7466 5.28139 41.2556 4.13814 45.8333 4.16653C45.8333 9.8332 44.2083 19.7915 33.3333 27.0832M18.75 24.9999H8.33334C8.33334 24.9999 9.47917 18.6874 12.5 16.6665C15.875 14.4165 22.9167 16.6665 22.9167 16.6665M9.375 34.3749C6.25 36.9999 5.20834 44.7915 5.20834 44.7915C5.20834 44.7915 13 43.7499 15.625 40.6249C17.1042 38.8749 17.0833 36.1874 15.4375 34.5624C14.6277 33.7895 13.561 33.3429 12.4421 33.3083C11.3232 33.2736 10.231 33.6535 9.375 34.3749Z" stroke="#44A3DD" stroke-width="2.91667" stroke-linecap="round" stroke-linejoin="round"/>
</svg>
