<svg width="50" height="50" viewBox="0 0 50 50" fill="none" xmlns="http://www.w3.org/2000/svg">
<path d="M25 39.5833L16.7292 44.5417C16.0811 44.931 15.3394 45.1367 14.5834 45.1367C13.8273 45.1367 13.0856 44.931 12.4375 44.5417L6.18752 40.7917C5.57243 40.4221 5.0632 39.9 4.70916 39.2758C4.35512 38.6517 4.16826 37.9467 4.16669 37.2292V30.4792C4.16826 29.7616 4.35512 29.0566 4.70916 28.4325C5.0632 27.8083 5.57243 27.2862 6.18752 26.9167L14.5834 21.875M25 39.5833V28.125M25 39.5833L33.2709 44.5417C33.9189 44.931 34.6607 45.1367 35.4167 45.1367C36.1727 45.1367 36.9145 44.931 37.5625 44.5417L43.8125 40.7917C44.4276 40.4221 44.9368 39.9 45.2909 39.2758C45.6449 38.6517 45.8318 37.9467 45.8334 37.2292V30.4792C45.8318 29.7616 45.6449 29.0566 45.2909 28.4325C44.9368 27.8083 44.4276 27.2862 43.8125 26.9167L35.4167 21.875M25 28.125L14.5834 21.875M25 28.125L14.5834 34.375M25 28.125L35.4167 21.875M25 28.125L35.4167 34.375M25 28.125L25 16.6667M14.5834 21.875V12.7708C14.5849 12.0533 14.7718 11.3483 15.1258 10.7241C15.4799 10.1 15.9891 9.57786 16.6042 9.20832L22.8542 5.45832C23.5022 5.06897 24.244 4.86328 25 4.86328C25.756 4.86328 26.4978 5.06897 27.1459 5.45832L33.3959 9.20832C34.0109 9.57786 34.5202 10.1 34.8742 10.7241C35.2283 11.3483 35.4151 12.0533 35.4167 12.7708V21.875M14.5834 34.375L4.70835 28.4375M14.5834 34.375V45.1458M35.4167 34.375L45.2917 28.4375M35.4167 34.375L35.4167 45.1458M25 16.6667L15.125 10.7292M25 16.6667L34.875 10.7292" stroke="#44A3DD" stroke-width="2.91667" stroke-linecap="round" stroke-linejoin="round"/>
</svg>
