<svg width="50" height="50" viewBox="0 0 50 50" fill="none" xmlns="http://www.w3.org/2000/svg">
<path d="M12.5062 10.6773C12.4691 9.84483 12.5987 9.01335 12.8876 8.23175C13.1765 7.45015 13.6187 6.73421 14.1883 6.12603C14.7579 5.51785 15.4434 5.02971 16.2044 4.69032C16.9655 4.35094 17.7867 4.16716 18.6198 4.14979C19.4529 4.13243 20.281 4.28183 21.0555 4.58921C21.83 4.89659 22.5353 5.35574 23.1297 5.93966C23.7242 6.52357 24.1959 7.22047 24.5171 7.98935C24.8383 8.75824 25.0024 9.58358 25 10.4169V37.5002M12.5062 10.6773C11.2817 10.9921 10.1448 11.5815 9.18172 12.4008C8.21866 13.2201 7.45466 14.2478 6.94758 15.4061C6.44051 16.5644 6.20366 17.8229 6.25497 19.0863C6.30628 20.3496 6.64441 21.5848 7.24374 22.6981C6.18995 23.5542 5.3613 24.6548 4.82987 25.9042C4.29843 27.1536 4.08032 28.5139 4.1945 29.8668C4.30868 31.2197 4.75169 32.5242 5.485 33.6669C6.21831 34.8095 7.21971 35.7557 8.40208 36.4231C8.25607 37.5528 8.3432 38.7004 8.65809 39.795C8.97298 40.8897 9.50894 41.9082 10.2329 42.7876C10.9568 43.667 11.8533 44.3887 12.8671 44.908C13.8809 45.4274 14.9904 45.7334 16.127 45.8071C17.2637 45.8809 18.4034 45.7208 19.4758 45.3369C20.5482 44.9529 21.5305 44.3532 22.362 43.5747C23.1935 42.7962 23.8566 41.8555 24.3103 40.8107C24.7641 39.766 24.9988 38.6392 25 37.5002M12.5062 10.6773C12.5474 11.685 12.8319 12.6679 13.3354 13.5419M25 37.5002H37.5C38.6051 37.5002 39.6649 37.9392 40.4463 38.7206C41.2277 39.502 41.6667 40.5618 41.6667 41.6669V43.7502M18.75 27.0835C20.4991 26.4682 22.0264 25.3481 23.1389 23.8648C24.2514 22.3815 24.899 20.6016 25 18.7502M7.24374 22.7002C7.62487 22.3898 8.03271 22.1137 8.46249 21.8752M12.5 37.5002C11.0642 37.5009 9.65263 37.1306 8.40208 36.4252M25 27.0835H33.3333M25 16.6669H41.6667M33.3333 16.6669V10.4169C33.3333 9.31178 33.7723 8.25198 34.5537 7.47057C35.3351 6.68917 36.3949 6.25019 37.5 6.25019M34.375 27.0835C34.375 27.6588 33.9086 28.1252 33.3333 28.1252C32.758 28.1252 32.2917 27.6588 32.2917 27.0835C32.2917 26.5082 32.758 26.0419 33.3333 26.0419C33.9086 26.0419 34.375 26.5082 34.375 27.0835ZM38.5417 6.25019C38.5417 6.82548 38.0753 7.29185 37.5 7.29185C36.9247 7.29185 36.4583 6.82548 36.4583 6.25019C36.4583 5.67489 36.9247 5.20852 37.5 5.20852C38.0753 5.20852 38.5417 5.67489 38.5417 6.25019ZM42.7083 43.7502C42.7083 44.3255 42.242 44.7919 41.6667 44.7919C41.0914 44.7919 40.625 44.3255 40.625 43.7502C40.625 43.1749 41.0914 42.7085 41.6667 42.7085C42.242 42.7085 42.7083 43.1749 42.7083 43.7502ZM42.7083 16.6669C42.7083 17.2421 42.242 17.7085 41.6667 17.7085C41.0914 17.7085 40.625 17.2421 40.625 16.6669C40.625 16.0916 41.0914 15.6252 41.6667 15.6252C42.242 15.6252 42.7083 16.0916 42.7083 16.6669Z" stroke="#44A3DD" stroke-width="2.91667" stroke-linecap="round" stroke-linejoin="round"/>
</svg>
