<svg width="50" height="50" viewBox="0 0 50 50" fill="none" xmlns="http://www.w3.org/2000/svg">
<path d="M16.6667 4.16699L20.5833 8.08366M29.4167 8.08366L33.3333 4.16699M18.75 14.8545V12.7712C18.7122 11.9269 18.8459 11.0837 19.143 10.2925C19.44 9.50132 19.8943 8.77852 20.4784 8.16772C21.0625 7.55692 21.7643 7.0708 22.5414 6.73868C23.3185 6.40656 24.1549 6.23533 25 6.23533C25.8451 6.23533 26.6815 6.40656 27.4586 6.73868C28.2357 7.0708 28.9375 7.55692 29.5216 8.16772C30.1057 8.77852 30.56 9.50132 30.857 10.2925C31.1541 11.0837 31.2878 11.9269 31.25 12.7712V14.8545M25 41.667C18.125 41.667 12.5 36.042 12.5 29.167V22.917C12.5 20.7069 13.378 18.5872 14.9408 17.0244C16.5036 15.4616 18.6232 14.5837 20.8333 14.5837H29.1667C31.3768 14.5837 33.4964 15.4616 35.0592 17.0244C36.622 18.5872 37.5 20.7069 37.5 22.917V29.167C37.5 36.042 31.875 41.667 25 41.667ZM25 41.667V22.917M13.6042 18.7503C9.58332 18.3337 6.24999 14.792 6.24999 10.417M12.5 27.0837H4.16666M6.24999 43.7503C6.24999 39.3753 9.79166 35.6253 14.1667 35.417M43.6875 10.417C43.6875 14.792 40.3542 18.3337 36.3958 18.7503M45.8333 27.0837H37.5M35.8333 35.417C40.2083 35.6253 43.75 39.3753 43.75 43.7503" stroke="#44A3DD" stroke-width="2.91667" stroke-linecap="round" stroke-linejoin="round"/>
</svg>
