<svg width="48" height="48" viewBox="0 0 48 48" fill="none" xmlns="http://www.w3.org/2000/svg">
<path d="M42 31.9998V15.9998C41.9993 15.2984 41.8141 14.6094 41.4631 14.0021C41.112 13.3948 40.6075 12.8905 40 12.5398L26 4.5398C25.3919 4.18873 24.7021 4.00391 24 4.00391C23.2979 4.00391 22.6081 4.18873 22 4.5398L8 12.5398C7.39253 12.8905 6.88796 13.3948 6.53692 14.0021C6.18589 14.6094 6.00072 15.2984 6 15.9998V31.9998C6.00072 32.7013 6.18589 33.3902 6.53692 33.9975C6.88796 34.6048 7.39253 35.1091 8 35.4598L22 43.4598C22.6081 43.8109 23.2979 43.9957 24 43.9957C24.7021 43.9957 25.3919 43.8109 26 43.4598L40 35.4598C40.6075 35.1091 41.112 34.6048 41.4631 33.9975C41.8141 33.3902 41.9993 32.7013 42 31.9998Z" stroke="black" stroke-width="2.8" stroke-linecap="round" stroke-linejoin="round"/>
<path d="M24 31.9998C28.4183 31.9998 32 28.4181 32 23.9998C32 19.5815 28.4183 15.9998 24 15.9998C19.5817 15.9998 16 19.5815 16 23.9998C16 28.4181 19.5817 31.9998 24 31.9998Z" stroke="black" stroke-width="2.8" stroke-linecap="round" stroke-linejoin="round"/>
</svg>
