<svg width="48" height="48" viewBox="0 0 48 48" fill="none" xmlns="http://www.w3.org/2000/svg">
<path d="M14.0999 20.0402V14.1002C14.0999 11.4746 15.143 8.95645 16.9996 7.09984C18.8562 5.24323 21.3743 4.2002 23.9999 4.2002C26.6256 4.2002 29.1437 5.24323 31.0003 7.09984C32.8569 8.95645 33.8999 11.4746 33.8999 14.1002V20.0402M25.9799 31.9202C25.9799 33.0137 25.0935 33.9002 23.9999 33.9002C22.9064 33.9002 22.0199 33.0137 22.0199 31.9202C22.0199 30.8267 22.9064 29.9402 23.9999 29.9402C25.0935 29.9402 25.9799 30.8267 25.9799 31.9202ZM10.1399 20.0402H37.8599C40.047 20.0402 41.8199 21.8131 41.8199 24.0002V39.8402C41.8199 42.0272 40.047 43.8002 37.8599 43.8002H10.1399C7.95288 43.8002 6.17993 42.0272 6.17993 39.8402V24.0002C6.17993 21.8131 7.95288 20.0402 10.1399 20.0402Z" stroke="black" stroke-width="2.8875" stroke-linecap="round" stroke-linejoin="round"/>
</svg>
