<svg width="48" height="48" viewBox="0 0 48 48" fill="none" xmlns="http://www.w3.org/2000/svg">
<path d="M39.9999 5.99952V13.9995M43.9999 9.99952H35.9999M7.99988 33.9995V37.9995M9.99988 35.9995H5.99988M19.8739 30.9995C19.6953 30.3074 19.3346 29.6757 18.8291 29.1703C18.3237 28.6648 17.692 28.3041 16.9999 28.1255L4.72988 24.9615C4.52054 24.9021 4.3363 24.776 4.2051 24.6024C4.07391 24.4288 4.00293 24.2171 4.00293 23.9995C4.00293 23.7819 4.07391 23.5702 4.2051 23.3966C4.3363 23.223 4.52054 23.0969 4.72988 23.0375L16.9999 19.8715C17.6918 19.6931 18.3233 19.3327 18.8287 18.8276C19.3341 18.3225 19.695 17.6913 19.8739 16.9995L23.0379 4.72952C23.0967 4.51936 23.2226 4.33421 23.3965 4.20231C23.5704 4.07042 23.7826 3.99902 24.0009 3.99902C24.2191 3.99902 24.4314 4.07042 24.6052 4.20231C24.7791 4.33421 24.9051 4.51936 24.9639 4.72952L28.1259 16.9995C28.3044 17.6917 28.6652 18.3233 29.1706 18.8288C29.6761 19.3342 30.3077 19.695 30.9999 19.8735L43.2699 23.0355C43.4809 23.0937 43.667 23.2195 43.7996 23.3937C43.9322 23.5678 44.004 23.7806 44.004 23.9995C44.004 24.2184 43.9322 24.4312 43.7996 24.6054C43.667 24.7795 43.4809 24.9053 43.2699 24.9635L30.9999 28.1255C30.3077 28.3041 29.6761 28.6648 29.1706 29.1703C28.6652 29.6757 28.3044 30.3074 28.1259 30.9995L24.9619 43.2695C24.9031 43.4797 24.7771 43.6648 24.6032 43.7967C24.4294 43.9286 24.2171 44 23.9989 44C23.7806 44 23.5684 43.9286 23.3945 43.7967C23.2206 43.6648 23.0947 43.4797 23.0359 43.2695L19.8739 30.9995Z" stroke="black" stroke-width="2.8" stroke-linecap="round" stroke-linejoin="round"/>
</svg>
