<svg width="51" height="50" viewBox="0 0 51 50" fill="none" xmlns="http://www.w3.org/2000/svg">
<path d="M12.8393 10.6773C12.8021 9.84483 12.9318 9.01335 13.2207 8.23175C13.5095 7.45015 13.9518 6.73421 14.5214 6.12603C15.091 5.51785 15.7765 5.02971 16.5375 4.69032C17.2985 4.35094 18.1198 4.16716 18.9528 4.14979C19.7859 4.13243 20.6141 4.28183 21.3886 4.58921C22.1631 4.89659 22.8683 5.35574 23.4628 5.93966C24.0572 6.52357 24.5289 7.22047 24.8501 7.98935C25.1713 8.75824 25.3355 9.58358 25.3331 10.4169V37.5002M12.8393 10.6773C11.6147 10.9921 10.4779 11.5815 9.51479 12.4008C8.55173 13.2201 7.78773 14.2478 7.28065 15.4061C6.77358 16.5644 6.53673 17.8229 6.58804 19.0863C6.63935 20.3496 6.97748 21.5848 7.57681 22.6981C6.52302 23.5542 5.69437 24.6548 5.16293 25.9042C4.6315 27.1536 4.41339 28.5139 4.52757 29.8668C4.64175 31.2197 5.08476 32.5243 5.81807 33.6669C6.55138 34.8095 7.55278 35.7557 8.73514 36.4231C8.58914 37.5528 8.67627 38.7004 8.99116 39.795C9.30605 40.8897 9.84201 41.9082 10.5659 42.7876C11.2899 43.667 12.1864 44.3887 13.2002 44.908C14.214 45.4274 15.3234 45.7334 16.4601 45.8071C17.5968 45.8809 18.7365 45.7208 19.8089 45.3369C20.8813 44.9529 21.8635 44.3532 22.6951 43.5747C23.5266 42.7962 24.1897 41.8555 24.6434 40.8107C25.0971 39.766 25.3318 38.6392 25.3331 37.5002M12.8393 10.6773C12.8805 11.685 13.165 12.6679 13.6685 13.5419M25.3331 37.5002H37.8331C38.9381 37.5002 39.9979 37.9392 40.7793 38.7206C41.5607 39.502 41.9997 40.5618 41.9997 41.6668V43.7502M19.0831 27.0835C20.8321 26.4682 22.3595 25.3481 23.472 23.8648C24.5845 22.3815 25.2321 20.6016 25.3331 18.7502M7.57681 22.7002C7.95793 22.3898 8.36577 22.1137 8.79556 21.8752M12.8331 37.5002C11.3973 37.5009 9.9857 37.1306 8.73514 36.4252M25.3331 27.0835H33.6664M25.3331 16.6669H41.9997M33.6664 16.6669V10.4169C33.6664 9.31178 34.1054 8.25198 34.8868 7.47057C35.6682 6.68917 36.728 6.25019 37.8331 6.25019M34.7081 27.0835C34.7081 27.6588 34.2417 28.1252 33.6664 28.1252C33.0911 28.1252 32.6247 27.6588 32.6247 27.0835C32.6247 26.5082 33.0911 26.0419 33.6664 26.0419C34.2417 26.0419 34.7081 26.5082 34.7081 27.0835ZM38.8747 6.25019C38.8747 6.82548 38.4084 7.29185 37.8331 7.29185C37.2578 7.29185 36.7914 6.82548 36.7914 6.25019C36.7914 5.67489 37.2578 5.20852 37.8331 5.20852C38.4084 5.20852 38.8747 5.67489 38.8747 6.25019ZM43.0414 43.7502C43.0414 44.3255 42.575 44.7918 41.9997 44.7918C41.4244 44.7918 40.9581 44.3255 40.9581 43.7502C40.9581 43.1749 41.4244 42.7085 41.9997 42.7085C42.575 42.7085 43.0414 43.1749 43.0414 43.7502ZM43.0414 16.6669C43.0414 17.2421 42.575 17.7085 41.9997 17.7085C41.4244 17.7085 40.9581 17.2421 40.9581 16.6669C40.9581 16.0916 41.4244 15.6252 41.9997 15.6252C42.575 15.6252 43.0414 16.0916 43.0414 16.6669Z" stroke="#2E9FE3" stroke-width="4" stroke-linecap="round" stroke-linejoin="round"/>
</svg>
